<?xml version="1.0" encoding="UTF-8" ?>
<!DOCTYPE svg PUBLIC "-//W3C//DTD SVG 1.1//EN" "http://www.w3.org/Graphics/SVG/1.1/DTD/svg11.dtd">
<svg width="512pt" height="512pt" viewBox="0 0 512 512" version="1.1" xmlns="http://www.w3.org/2000/svg">
<path fill="#d68b3b" d=" M 0.00 0.00 L 512.00 0.00 L 512.00 512.00 L 0.00 512.00 L 0.00 0.00 Z" />
<path fill="#fffefe" d=" M 182.40 89.56 C 198.85 87.70 215.95 91.18 230.06 99.95 C 251.84 112.94 266.37 137.58 266.40 163.02 C 266.41 164.69 264.76 165.68 263.82 166.87 C 249.45 180.41 240.30 199.37 238.73 219.08 C 238.45 220.80 238.66 222.95 237.01 224.06 C 212.95 243.23 176.70 244.92 150.99 228.01 C 135.02 218.03 123.14 201.82 118.32 183.63 C 114.00 166.85 115.39 148.55 122.79 132.84 C 133.47 109.43 156.80 92.38 182.40 89.56 Z" />
<path fill="#fffefe" d=" M 309.48 151.76 C 327.08 149.01 345.63 152.79 360.68 162.33 C 375.98 171.78 387.59 186.94 392.94 204.09 C 397.39 218.84 397.28 234.92 392.54 249.59 C 387.10 266.16 375.73 280.69 360.97 289.98 C 348.55 297.87 333.73 301.94 319.02 301.51 C 302.97 301.20 287.11 295.47 274.54 285.49 C 259.59 273.93 249.24 256.47 246.50 237.75 C 243.78 220.51 247.25 202.30 256.43 187.42 C 267.72 168.50 287.67 155.02 309.48 151.76 Z" />
<path fill="#fffefe" d=" M 123.56 259.51 C 146.09 250.18 170.71 246.55 195.00 247.03 C 210.64 247.38 226.31 249.32 241.38 253.64 C 243.53 254.02 243.94 256.49 244.85 258.12 C 252.45 276.38 266.90 291.63 284.66 300.33 C 286.87 301.42 289.11 302.47 291.32 303.59 C 272.62 306.79 253.91 311.77 237.44 321.48 C 227.41 327.34 218.11 335.01 212.00 345.01 C 208.98 349.81 207.48 355.32 205.92 360.71 C 164.98 360.69 124.04 360.72 83.11 360.70 C 82.96 341.78 83.06 322.86 83.06 303.94 C 82.91 294.74 87.45 286.16 93.53 279.52 C 101.77 270.57 112.47 264.27 123.56 259.51 Z" />
<path fill="#fffefe" d=" M 257.72 319.74 C 284.02 309.92 312.67 307.02 340.54 309.72 C 359.19 311.66 377.84 315.88 394.73 324.24 C 405.82 329.74 416.45 337.14 423.39 347.60 C 427.18 353.28 429.22 360.11 428.99 366.96 C 428.88 385.50 429.11 404.05 428.88 422.59 C 357.00 422.56 285.12 422.59 213.23 422.57 C 213.14 403.69 213.20 384.81 213.20 365.93 C 213.04 356.52 217.72 347.73 224.02 341.00 C 233.22 331.19 245.30 324.60 257.72 319.74 Z" />
</svg>
