<?xml version="1.0" encoding="UTF-8" ?>
<!DOCTYPE svg PUBLIC "-//W3C//DTD SVG 1.1//EN" "http://www.w3.org/Graphics/SVG/1.1/DTD/svg11.dtd">
<svg width="256pt" height="256pt" viewBox="0 0 256 256" version="1.1" xmlns="http://www.w3.org/2000/svg">
<path fill="#00a3e8" d=" M 0.00 0.00 L 256.00 0.00 L 256.00 256.00 L 0.00 256.00 L 0.00 0.00 Z" />
<path fill="#fefffe" d=" M 177.20 11.19 C 200.07 11.18 222.95 11.21 245.82 11.17 C 245.93 24.73 245.81 38.29 245.87 51.85 C 222.97 51.84 200.08 51.90 177.19 51.82 C 177.19 38.28 177.19 24.73 177.20 11.19 Z" />
<path fill="#fefffe" d=" M 177.19 60.18 C 200.08 60.11 222.96 60.17 245.85 60.14 C 245.86 72.71 245.85 85.28 245.86 97.85 C 222.97 97.84 200.08 97.88 177.19 97.83 C 177.20 85.28 177.18 72.73 177.19 60.18 Z" />
<path fill="#fefffe" d=" M 59.98 101.09 C 76.66 96.40 94.81 97.10 111.15 102.84 C 122.53 106.72 132.34 114.23 140.35 123.07 C 134.71 129.20 128.67 134.96 122.63 140.68 C 114.39 132.71 104.45 125.94 92.96 123.97 C 82.26 121.46 70.78 123.11 60.92 127.84 C 50.67 133.20 42.05 142.28 38.44 153.40 C 35.90 160.87 35.73 169.02 37.16 176.73 C 39.85 190.57 49.98 202.22 62.46 208.35 C 75.22 214.19 90.42 214.96 103.43 209.48 C 111.25 206.22 117.38 199.68 121.09 192.17 C 108.19 191.43 95.25 192.11 82.34 191.79 C 82.38 183.61 82.34 175.42 82.35 167.24 C 104.88 167.13 127.40 167.19 149.92 167.22 C 152.84 197.18 132.28 228.45 102.64 235.64 C 78.62 241.47 50.97 236.64 32.63 219.34 C 21.39 208.63 13.64 194.16 11.42 178.76 C 8.67 162.36 11.81 144.87 20.85 130.83 C 29.88 116.77 43.77 105.60 59.98 101.09 Z" />
<path fill="#fefffe" d=" M 177.21 106.16 C 187.74 106.11 198.28 106.15 208.81 106.16 C 208.81 116.38 208.84 126.60 208.80 136.81 C 198.27 136.81 187.73 136.82 177.20 136.79 C 177.19 126.58 177.17 116.37 177.21 106.16 Z" />
<path fill="#fefffe" d=" M 217.18 106.16 C 226.74 106.13 236.29 106.14 245.85 106.14 C 245.85 116.37 245.88 126.60 245.81 136.84 C 236.27 136.79 226.73 136.85 217.19 136.81 C 217.13 126.59 217.23 116.38 217.18 106.16 Z" />
<path fill="#fefffe" d=" M 177.20 145.20 C 200.07 145.17 222.95 145.20 245.82 145.18 C 245.88 154.73 245.89 164.28 245.83 173.83 C 222.95 173.87 200.08 173.88 177.20 173.82 C 177.19 164.28 177.16 154.74 177.20 145.20 Z" />
<path fill="#fefffe" d=" M 177.19 182.16 C 200.08 182.13 222.97 182.16 245.86 182.14 C 245.82 203.03 245.91 223.93 245.82 244.83 C 222.95 244.79 200.08 244.82 177.21 244.81 C 177.18 223.93 177.20 203.04 177.19 182.16 Z" />
</svg>
